<svg width="35" height="45" viewBox="0 0 35 45" fill="none" xmlns="http://www.w3.org/2000/svg">
<path d="M0.775543 4.89074C0.775543 2.1361 2.9679 0 6.22857 0C9.48924 0 11.6816 2.02374 11.6816 4.72213C11.6816 7.64539 9.48924 9.78166 6.22857 9.78166C2.9679 9.78166 0.775543 7.64539 0.775543 4.89092V4.89074ZM1.84368 13.9978H10.6135V44.2421H1.84368V13.9978Z" fill="#22B573"/>
<path d="M23.3184 4.89074C23.3184 2.1361 25.5107 0 28.7714 0C32.0321 0 34.2244 2.02374 34.2244 4.72213C34.2244 7.64539 32.0321 9.78166 28.7714 9.78166C25.5107 9.78166 23.3184 7.64539 23.3184 4.89092V4.89074ZM24.3865 13.9978H33.1563V44.2421H24.3865V13.9978Z" fill="#22B573"/>
</svg>
